Coordinates
version=1
nRows=12
nColumns=24
inDegrees=yes

Units are S.I. units (second, meters, Newtons, ...)
Angles are in degrees.

endheader
time	pelvis_tilt	pelvis_list	pelvis_rotation	pelvis_tx	pelvis_ty	pelvis_tz	hip_flexion_r	hip_adduction_r	hip_rotation_r	knee_angle_r	ankle_angle_r	subtalar_angle_r	mtp_angle_r	hip_flexion_l	hip_adduction_l	hip_rotation_l	knee_angle_l	ankle_angle_l	subtalar_angle_l	mtp_angle_l	lumbar_extension	lumbar_bending	lumbar_rotation
      6.90000000	      2.40415197	      5.61325438	      7.18343370	      0.04855480	      1.06025857	     -0.03699117	     19.45086955	     -5.38426603	     -2.20860974	    -24.55018220	      5.45485359	    -17.39703021	      0.00000000	    -13.43386172	     11.09893903	     -1.62460267	      0.09506527	      5.53611780	    -24.18319882	      0.00000000	    -20.13411335	     -5.62166555	    -19.11235395
      6.91000000	      2.13251050	      5.88190123	      7.78758229	      0.06217100	      1.05858711	     -0.03808203	     19.25853747	     -5.75941043	     -2.85085970	    -20.84192738	      6.40147657	    -14.60554431	      0.00000000	    -14.27744786	     11.22405821	     -1.06061651	      0.48356054	      5.46658730	    -24.17666706	      0.00000000	    -19.72613144	     -5.87476665	    -19.43953941
      6.92000000	      1.79677630	      6.11875441	      8.38236805	      0.07596130	      1.05679125	     -0.03908992	     19.05683170	     -6.06868977	     -3.35059189	    -17.08136315	      6.97391274	    -12.22985580	      0.00000000	    -15.03563201	     11.28645821	     -0.49674308	      0.82275199	      5.35108417	    -24.14391906	      0.00000000	    -19.21801652	     -6.12804187	    -19.73353511
      6.93000000	      1.46916411	      6.33150144	      8.94839491	      0.08991198	      1.05497834	     -0.03998631	     18.75731563	     -6.30210862	     -3.54224096	    -13.27240935	      7.10694602	    -10.60964784	      0.00000000	    -15.78799274	     11.28807726	      0.07685740	      1.12233018	      5.22959364	    -24.02975391	      0.00000000	    -18.70477380	     -6.37707497	    -19.99648797
      6.94000000	      1.07775788	      6.55215639	      9.50816259	      0.10399556	      1.05307398	     -0.04079141	     18.45228181	     -6.53443173	     -3.40584633	     -9.50037134	      6.89131758	     -9.86735456	      0.00000000	    -16.44326790	     11.27264883	      0.61383382	      1.34512520	      5.16001646	    -23.71067640	      0.00000000	    -18.11646771	     -6.66647591	    -20.26630458
      6.95000000	      0.85629655	      6.76222697	      9.99801109	      0.11821341	      1.05134004	     -0.04146637	     17.93508316	     -6.73305287	     -3.07599866	     -5.86755867	      6.46984907	     -9.81054877	      0.00000000	    -17.27418238	     11.19580862	      1.18490662	      1.56677338	      4.97421616	    -23.48589856	      0.00000000	    -17.73149988	     -6.92633053	    -20.51994139
      6.96000000	      0.63444784	      6.95913033	     10.44603319	      0.13250976	      1.04961389	     -0.04205780	     17.50011626	     -6.94813087	     -2.99117527	     -2.61221871	      6.08139187	     -9.96682041	      0.00000000	    -18.05786415	     11.08738909	      1.75219211	      1.70555714	      4.88676214	    -23.08122333	      0.00000000	    -17.35229376	     -7.17481643	    -20.74291651
      6.97000000	      0.42247125	      7.16032160	     10.83272491	      0.14682857	      1.04794462	     -0.04249976	     17.21320987	     -7.16065693	     -3.31321939	      0.09627879	      5.90755810	    -10.00741481	      0.00000000	    -18.77886285	     10.97607240	      2.21707682	      1.73250361	      4.75092390	    -22.65383081	      0.00000000	    -17.01018255	     -7.43479918	    -21.04703729
      6.98000000	      0.33919737	      7.29577833	     11.12458897	      0.16122982	      1.04647514	     -0.04273558	     16.97436101	     -7.23571231	     -3.95002003	      2.19387218	      5.85794246	    -10.09305480	      0.00000000	    -19.55659990	     10.77776353	      2.60054397	      1.67077023	      4.54557641	    -22.19864866	      0.00000000	    -16.81256639	     -7.60430368	    -21.29534539
      6.99000000	      0.39100139	      7.35980100	     11.31644163	      0.17571722	      1.04521577	     -0.04278225	     16.80284557	     -7.15655861	     -4.80021738	      3.59411274	      5.93068975	    -10.16497259	      0.00000000	    -20.38819184	     10.49510718	      2.90143049	      1.51117080	      4.32210865	    -21.75285227	      0.00000000	    -16.75990452	     -7.66422930	    -21.54030721
      7.00000000	      0.57994407	      7.35502543	     11.39336613	      0.19030681	      1.04417604	     -0.04264885	     16.71898632	     -6.93201133	     -5.80208955	      4.22527747	      6.24200567	    -10.03026139	      0.00000000	    -21.25064091	     10.14700347	      3.00010854	      1.21493151	      4.02755701	    -21.31489854	      0.00000000	    -16.84503119	     -7.61533025	    -21.78124681
      7.01000000	      0.80128007	      7.30706012	     11.41215324	      0.20504780	      1.04320442	     -0.04245907	     16.75597661	     -6.65177498	     -6.58790762	      4.18135517	      6.40010507	    -10.22017219	      0.00000000	    -22.06661270	      9.76752405	      3.13410836	      0.79586911	      3.74098734	    -20.92930958	      0.00000000	    -16.93178170	     -7.50212911	    -22.04125055
